name D:\school\WTK\thesis\model\3dpredictsim\Results\batch_windlass\Pog_s1_tmt_bCst_d00_k500_WL30_ig24.mot
datacolumns 128
datarows 4
range 1.64137505 1.67420255
endheader
time	pelvis_tilt	pelvis_list	pelvis_rotation	pelvis_tx	pelvis_ty	pelvis_tz	hip_flexion_l	hip_adduction_l	hip_rotation_l	hip_flexion_r	hip_adduction_r	hip_rotation_r	knee_angle_l	knee_angle_r	ankle_angle_l	ankle_angle_r	subtalar_angle_l	subtalar_angle_r	tmt_angle_l	tmt_angle_r	mtp_angle_l	mtp_angle_r	lumbar_extension	lumbar_bending	lumbar_rotation	arm_flex_l	arm_add_l	arm_rot_l	arm_flex_r	arm_add_r	arm_rot_r	elbow_flex_l	elbow_flex_r	pro_sup_l	pro_sup_r	glut_med1_l/activation	glut_med2_l/activation	glut_med3_l/activation	glut_min1_l/activation	glut_min2_l/activation	glut_min3_l/activation	semimem_l/activation	semiten_l/activation	bifemlh_l/activation	bifemsh_l/activation	sar_l/activation	add_long_l/activation	add_brev_l/activation	add_mag1_l/activation	add_mag2_l/activation	add_mag3_l/activation	tfl_l/activation	pect_l/activation	grac_l/activation	glut_max1_l/activation	glut_max2_l/activation	glut_max3_l/activation	iliacus_l/activation	psoas_l/activation	quad_fem_l/activation	gem_l/activation	peri_l/activation	rect_fem_l/activation	vas_med_l/activation	vas_int_l/activation	vas_lat_l/activation	med_gas_l/activation	lat_gas_l/activation	soleus_l/activation	tib_post_l/activation	flex_dig_l/activation	flex_hal_l/activation	tib_ant_l/activation	per_brev_l/activation	per_long_l/activation	per_tert_l/activation	ext_dig_l/activation	ext_hal_l/activation	ercspn_l/activation	intobl_l/activation	extobl_l/activation	glut_med1_r/activation	glut_med2_r/activation	glut_med3_r/activation	glut_min1_r/activation	glut_min2_r/activation	glut_min3_r/activation	semimem_r/activation	semiten_r/activation	bifemlh_r/activation	bifemsh_r/activation	sar_r/activation	add_long_r/activation	add_brev_r/activation	add_mag1_r/activation	add_mag2_r/activation	add_mag3_r/activation	tfl_r/activation	pect_r/activation	grac_r/activation	glut_max1_r/activation	glut_max2_r/activation	glut_max3_r/activation	iliacus_r/activation	psoas_r/activation	quad_fem_r/activation	gem_r/activation	peri_r/activation	rect_fem_r/activation	vas_med_r/activation	vas_int_r/activation	vas_lat_r/activation	med_gas_r/activation	lat_gas_r/activation	soleus_r/activation	tib_post_r/activation	flex_dig_r/activation	flex_hal_r/activation	tib_ant_r/activation	per_brev_r/activation	per_long_r/activation	per_tert_r/activation	ext_dig_r/activation	ext_hal_r/activation	ercspn_r/activation	intobl_r/activation	extobl_r/activation	
          1.64137505	         -2.93016065	          1.62601668	         -5.47412680	          2.05171881	          0.86035160	          0.00177019	         31.82221659	          2.30989393	         -1.99312860	        -17.34780701	         -1.14546000	          7.55328800	        -16.61430336	         -8.79424046	          6.19122472	          1.19566634	          0.10152118	         11.50873773	         -0.22223504	         -6.64734370	          0.76527371	         26.67099930	         -1.40082153	          0.09021336	          1.93881391	         -8.08737994	        -13.53787191	          8.81961256	          5.86796490	        -13.46056338	         16.77513495	         16.01968568	         34.19189395	         86.51662706	         86.51662706	          0.05000008	          0.05000007	          0.05911875	          0.05000003	          0.05000004	          0.05000018	          0.05905017	          0.05911891	          0.06391237	          0.05000014	          0.05000022	          0.09712758	          0.13932072	          0.12314781	          0.14476351	          0.10860893	          0.05911527	          0.05000130	          0.05911898	          0.05911884	          0.05911881	          0.09475510	          0.05063969	          0.05874393	          0.23027244	          0.05000009	          0.05000015	          0.05000017	          0.09386162	          0.10138175	          0.07947711	          0.05000002	          0.05000006	          0.05223376	          0.05569156	          0.05912055	          0.06518723	          0.47271242	          0.34069596	          0.21509573	          0.05000106	          0.53296567	          0.20993750	          0.05783489	          0.11390614	          0.12011656	          0.36657225	          0.09434384	          0.05911871	          0.35072020	          0.20740081	          0.09772193	          0.05000097	          0.05000012	          0.05000008	          0.06990051	          0.08835589	          0.06200557	          0.05000019	          0.05000020	          0.05000051	          0.05000103	          0.25483027	          0.05000058	          0.05000016	          0.05000063	          0.05000051	          0.05000042	          0.29683164	          0.49432913	          0.05000003	          0.05000019	          0.05000006	          0.19035696	          0.05045006	          0.07231371	          0.08286331	          0.28579446	          0.37056032	          0.25295345	          0.21419518	          0.19539666	          0.27497062	          0.05000000	          0.11635489	          0.17775112	          0.05000002	          0.05000000	          0.05000002	          0.05000000	          0.05000002	          0.05000000	
          1.65231755	         -2.92646041	          1.69902237	         -5.71934434	          2.06836718	          0.85962380	          0.00155873	         31.12762248	          2.68892860	         -1.79126923	        -17.20263855	         -1.42187384	          7.31236275	        -16.05535329	        -10.64266997	          5.82336518	          0.25021829	         -0.36583757	         12.44913752	         -0.27899629	         -7.46959104	          0.98624483	         27.88832742	         -1.19829387	         -0.13722732	          2.01727984	         -9.14274648	        -13.52674794	          8.58294414	          5.62488531	        -13.48109662	         17.05772473	         15.92452572	         35.24973031	         86.51662706	         86.51662706	          0.05911873	          0.05911876	          0.05000003	          0.05911883	          0.05911879	          0.05911871	          0.05000034	          0.05000017	          0.05911878	          0.05000007	          0.05000033	          0.09879045	          0.23261133	          0.10415297	          0.12243465	          0.11934032	          0.05000004	          0.07479183	          0.05000033	          0.05000012	          0.05000006	          0.15071922	          0.05911878	          0.05195275	          0.36326385	          0.21716626	          0.14301819	          0.06250738	          0.19250594	          0.18958095	          0.16220755	          0.05261750	          0.05075384	          0.05957508	          0.05000000	          0.05000157	          0.05513254	          0.61304881	          0.33885373	          0.18389009	          0.41646525	          0.60707937	          0.35933774	          0.05000001	          0.09633673	          0.10158922	          0.33728211	          0.07979182	          0.05000001	          0.29662354	          0.17541036	          0.08264885	          0.05000027	          0.05000004	          0.05000003	          0.05911874	          0.07472753	          0.11610329	          0.17897203	          0.05000065	          0.05000053	          0.05000009	          0.21552409	          0.08714340	          0.05000058	          0.05000030	          0.05000018	          0.05000013	          0.25104697	          0.42926660	          0.05000004	          0.05000012	          0.05000006	          0.16099543	          0.11026709	          0.10777072	          0.09721372	          0.24171220	          0.31340338	          0.21393674	          0.18115675	          0.16525784	          0.23255791	          0.05000002	          0.09840779	          0.15033398	          0.05000007	          0.05000004	          0.05000008	          0.05000004	          0.05000010	          0.06210536	
          1.66326005	         -2.91762409	          1.77521410	         -5.93571375	          2.08528792	          0.85872533	          0.00135275	         30.31724815	          3.03946839	         -1.53381805	        -16.98546972	         -1.68961184	          7.05916777	        -16.08075767	        -12.63971844	          5.22454501	         -0.77923895	         -0.85369492	         13.33797610	         -0.41233098	         -8.18638990	          1.22682352	         28.71563427	         -0.97793087	         -0.37719933	          2.08630096	        -10.19633490	        -13.52135488	          8.40210905	          5.30178871	        -13.50888151	         17.26569872	         15.82096364	         36.29717944	         86.51662706	         86.51662706	          0.05000000	          0.05000003	          0.11109778	          0.05000007	          0.05000004	          0.05000003	          0.05000001	          0.05000004	          0.05000004	          0.05000001	          0.05000005	          0.08355259	          0.20352585	          0.31226543	          0.24107959	          0.13147564	          0.05000021	          0.06325776	          0.09471601	          0.08940510	          0.11295825	          0.12747166	          0.05000005	          0.05000008	          0.37333337	          0.18366954	          0.12095842	          0.06144106	          0.24820696	          0.25124052	          0.21192040	          0.05911872	          0.05911874	          0.06107941	          0.05911874	          0.05000030	          0.05000015	          0.57439676	          0.39258432	          0.21152261	          0.44058928	          0.57937484	          0.30391185	          0.05000000	          0.08147731	          0.08591963	          0.28525817	          0.06748436	          0.05000042	          0.25087098	          0.14835427	          0.06990072	          0.05000060	          0.05000006	          0.05000013	          0.05000001	          0.06320125	          0.19810272	          0.30132289	          0.17732044	          0.05913256	          0.16149244	          0.18228068	          0.07370209	          0.05000012	          0.05040208	          0.05911831	          0.05911871	          0.21232433	          0.38576721	          0.05005251	          0.05028447	          0.05000006	          0.13616275	          0.11554436	          0.12298484	          0.11554372	          0.20442939	          0.26506259	          0.18093815	          0.15321430	          0.13976774	          0.19668713	          0.10687314	          0.08322894	          0.14405280	          0.05000004	          0.13696791	          0.05000026	          0.05973952	          0.05911880	          0.06403638	
          1.67420255	         -2.90487810	          1.86204913	         -6.12019790	          2.10234326	          0.85764494	          0.00116514	         29.33172834	          3.33933528	         -1.24544899	        -16.67372936	         -1.94702819	          6.80062877	        -16.33040872	        -14.83001417	          4.96596594	         -1.82077423	         -1.35968274	         14.14055602	         -1.14663356	         -8.64586678	          1.29685944	         28.81833162	         -0.75115569	         -0.63652546	          2.14307260	        -11.21402538	        -13.52863335	          8.31465774	          4.91914403	        -13.53839588	         17.39967979	         15.67927353	         37.32934680	         86.51662706	         86.51662706	          0.26787961	          0.27762156	          0.33552757	          0.31787575	          0.19698354	          0.20475713	          0.08115531	          0.09520416	          0.08357999	          0.06686109	          0.05725265	          0.07066506	          0.17213309	          0.26410018	          0.20389441	          0.12639369	          0.05000006	          0.05350079	          0.08010665	          0.20312184	          0.16063315	          0.10780992	          0.05000009	          0.05000006	          0.31574872	          0.15533955	          0.24198756	          0.05196411	          0.20992240	          0.21248807	          0.17923284	          0.05000002	          0.05000004	          0.05165825	          0.05000000	          0.05001661	          0.05000114	          0.65528993	          0.36712110	          0.17889652	          0.67654768	          0.66144692	          0.40545075	          0.05405858	          0.08431890	          0.07266699	          0.34581737	          0.05707527	          0.05000000	          0.30994182	          0.12547144	          0.05911893	          0.05000162	          0.05000009	          0.05000005	          0.05000069	          0.05946517	          0.16754650	          0.25484560	          0.14996975	          0.05001179	          0.13658314	          0.15416494	          0.08264830	          0.05000021	          0.05000010	          0.05000007	          0.05000006	          0.17957447	          0.36421068	          0.05000000	          0.05000003	          0.05000003	          0.11516038	          0.09772227	          0.10401509	          0.09772173	          0.17289725	          0.22417811	          0.15302941	          0.12958183	          0.11820936	          0.16634922	          0.18598629	          0.16191854	          0.16241571	          0.24303566	          0.22262103	          0.11292221	          0.08199352	          0.05000004	          0.05415911	
